<svg id="Camada_1" data-name="Camada 1" xmlns="http://www.w3.org/2000/svg" viewBox="0 0 511.99 512"><defs><style>.cls-1{fill:#e1e7ea;}</style></defs><title>icone-tutorial_active</title><path class="cls-1" d="M507.31,84.69,464,41.37A32,32,0,0,0,441.37,32H288V16A16,16,0,0,0,272,0H240a16,16,0,0,0-16,16V32H56A24,24,0,0,0,32,56v80a24,24,0,0,0,24,24H441.37A32,32,0,0,0,464,150.63l43.31-43.31A16,16,0,0,0,507.31,84.69ZM224,496a16,16,0,0,0,16,16h32a16,16,0,0,0,16-16V384H224ZM456,224H288V192H224v32H70.63A32,32,0,0,0,48,233.37L4.69,276.69a16,16,0,0,0,0,22.63L48,342.63A32,32,0,0,0,70.63,352H456a24,24,0,0,0,24-24V248A24,24,0,0,0,456,224Z" transform="translate(0)"/></svg>