<?xml version="1.0" encoding="utf-8"?>
<!-- Generator: Adobe Illustrator 22.0.1, SVG Export Plug-In . SVG Version: 6.00 Build 0)  -->
<svg version="1.1" id="iconmonstr" xmlns="http://www.w3.org/2000/svg" xmlns:xlink="http://www.w3.org/1999/xlink" x="0px" y="0px"
	 viewBox="0 0 24 20" style="enable-background:new 0 0 24 20;" xml:space="preserve">
<style type="text/css">
	.st0{fill:#E1E7EA;}
</style>
<title>rematricula</title>
<path id="id-card-19" class="st0" d="M13.8,12.3c-0.3,0.5-0.5,1.1-0.7,1.7H4v-0.4c0-1.1,0-1.7,1.3-2S8.1,11,7.5,9.7
	C5.5,6.1,6.9,4,9,4s3.5,2,1.6,5.7c-0.6,1.2,0.7,1.5,2.1,1.8C13.2,11.6,13.6,11.9,13.8,12.3z M13,16H2V2h20v7.5
	c0.7,0.3,1.4,0.8,2,1.3V0H0v18h13.5C13.2,17.4,13.1,16.7,13,16z M20,7h-4v2h4V7z M16,6h4V4h-4V6z M19.5,11C17,11,15,13,15,15.5
	s2,4.5,4.5,4.5s4.5-2,4.5-4.5C24,13,22,11,19.5,11C19.5,11,19.5,11,19.5,11z M19,17.5l-1.7-1.6l0.7-0.7l1,0.9l2.1-2.2l0.7,0.7
	L19,17.5z"/>
</svg>
