<?xml version="1.0" encoding="utf-8"?>
<!-- Generator: Adobe Illustrator 22.0.1, SVG Export Plug-In . SVG Version: 6.00 Build 0)  -->
<svg version="1.1" id="Camada_1" xmlns="http://www.w3.org/2000/svg" xmlns:xlink="http://www.w3.org/1999/xlink" x="0px" y="0px"
	 viewBox="0 0 496 512" style="enable-background:new 0 0 496 512;" xml:space="preserve">
<style type="text/css">
	.st0{display:none;}
	.st1{display:inline;fill:#FC2942;}
	.st2{fill:#E1E7EA;}
</style>
<g id="Camada_2" class="st0">
	<rect x="-8" y="-15" class="st1" width="580" height="540"/>
</g>
<path class="st0" d="M248,8C111,8,0,119,0,256s111,248,248,248s248-111,248-248S385,8,248,8z M248,104c48.6,0,88,39.4,88,88
	s-39.4,88-88,88s-88-39.4-88-88S199.4,104,248,104z M248,448c-58.7,0-111.3-26.6-146.5-68.2c18.8-35.4,55.6-59.8,98.5-59.8
	c2.4,0,4.8,0.4,7.1,1.1c13,4.2,26.6,6.9,40.9,6.9s28-2.7,40.9-6.9c2.3-0.7,4.7-1.1,7.1-1.1c42.9,0,79.7,24.4,98.5,59.8
	C359.3,421.4,306.7,448,248,448z"/>
<g>
	<path class="st2" d="M248.8,504.2C109.7,503-0.3,393.3,0,254.9C0.3,118.5,109.9,7.2,249.7,7.8C385.9,8.4,495.9,118,496,255.2
		C496.1,393.3,385.9,502.9,248.8,504.2z M248,96.5c-62.9-0.3-112.9,51.2-111.8,113.6c1.1,60.5,49.7,110.1,111.8,109.8
		c61.7-0.3,114-49.8,111.8-115.7C357.9,145.4,309.3,95.4,248,96.5z M247.4,472.2c15,0.7,29.8-1.5,44.1-4.5
		c51.7-11.1,94.4-37.2,127.1-79.4c3.8-4.9,5-9.6,3.5-14.8c-4.7-16.3-13.7-29.6-28.1-39c-14.1-9.3-30.8-10.6-46.3-15.4
		c-4.3-1.3-7.5,0.2-11.2,2.8c-50.2,35.7-103.8,42.5-157.6,11.3c-20.2-11.7-37.1-14.8-58.3-7.3c-23.1,8.2-38.8,22.8-46,46.2
		c-1.7,5.5-1.5,10.6,2.7,15.8C120.9,442.4,177.9,469.8,247.4,472.2z"/>
</g>
</svg>
