<?xml version="1.0" encoding="utf-8"?>
<!-- Generator: Adobe Illustrator 22.0.1, SVG Export Plug-In . SVG Version: 6.00 Build 0)  -->
<svg version="1.1" id="Camada_1" xmlns="http://www.w3.org/2000/svg" xmlns:xlink="http://www.w3.org/1999/xlink" x="0px" y="0px"
	 viewBox="0 0 140 140" style="enable-background:new 0 0 140 140;" xml:space="preserve">
<style type="text/css">
	.st0{fill:#E1E7EA;}
</style>
<title>caa_on_line</title>
<path class="st0" d="M22.4,110.8h-4.9C7.8,110.8,0,103,0,93.3V75.8C0,34,31.4,0,70,0s70,34,70,75.8v17.5c0,9.7-7.8,17.5-17.5,17.5
	h-5C101.9,137.9,77.3,140,70,140S38.1,137.9,22.4,110.8z M116.7,76.6c-3.5,1.4-7.4-1-7.4-4.6c0-1.8-0.1-3.6-0.3-5.3
	c-10.3-1.5-21.1-11.2-21.6-21.7C79.7,56.6,61,69.2,46.3,69.2C52.6,65.1,57,53,57.4,48.7C54,55.1,40.5,67,30.8,69.1
	c-0.1,0.9-0.1,1.9-0.1,2.8c0,3.6-3.9,6-7.4,4.6v22c1.8,1.6,3.8,2.8,6.1,3.5c1.3,0.4,2.3,1.3,3,2.5c12.9,23.6,31.6,23.8,37.6,23.8
	c5.4,0,21.7-0.2,34.3-18.5c-6.2,2.5-13.2,3.5-21.9,3.8c-2.1,3.5-6.9,5.9-12.4,5.9c-7.5,0-13.6-4.6-13.6-10.2S62.4,99.2,70,99.2
	c5.4,0,10.1,2.4,12.3,5.9c11.1-0.1,25.3-2,34.4-15.4L116.7,76.6L116.7,76.6z M52.5,72.9c4,0,7.2,3.9,7.2,8.8s-3.2,8.8-7.2,8.8
	s-7.2-3.9-7.2-8.8S48.5,72.9,52.5,72.9z M87.5,72.9c4,0,7.2,3.9,7.2,8.8s-3.2,8.8-7.2,8.8s-7.2-3.9-7.2-8.8S83.5,72.9,87.5,72.9z
	 M119.5,64.2h7.9c-5-29.9-28.8-52.5-57.4-52.5S17.6,34.3,12.6,64.2h7.9c3-23.5,19.9-45,49.4-45S116.4,40.7,119.5,64.2L119.5,64.2z"
	/>
</svg>
